<?xml version="1.0" encoding="utf-8"?>
<!-- Generator: Adobe Illustrator 27.5.0, SVG Export Plug-In . SVG Version: 6.00 Build 0)  -->
<svg version="1.1" xmlns="http://www.w3.org/2000/svg" xmlns:xlink="http://www.w3.org/1999/xlink" x="0px" y="0px"
	 viewBox="0 0 500 500" style="enable-background:new 0 0 500 500;" xml:space="preserve">
<g id="Background_Simple">
	<g>
		<path style="fill:#C6FF00;" d="M286.923,403.93c0,0,71.026-17.23,115.052-55.791c44.025-38.561,57.884-95.958,31.976-145.263
			c-25.908-49.305-100.231-57.074-153.43-95.043c-53.199-37.969-121.97-44.787-167.049,6.708
			c-45.078,51.494-7.755,80.669-19.142,147.739C82.942,329.35,121.229,437.65,286.923,403.93z"/>
		<path style="opacity:0.7;fill:#FFFFFF;" d="M286.923,403.93c0,0,71.026-17.23,115.052-55.791
			c44.025-38.561,57.884-95.958,31.976-145.263c-25.908-49.305-100.231-57.074-153.43-95.043
			c-53.199-37.969-121.97-44.787-167.049,6.708c-45.078,51.494-7.755,80.669-19.142,147.739
			C82.942,329.35,121.229,437.65,286.923,403.93z"/>
	</g>
</g>
<g id="Plants">
	<g>
		<defs>
			<rect id="SVGID_1_" x="34.574" y="250.316" width="64.739" height="189.383"/>
		</defs>
		<clipPath id="SVGID_00000151524850143074930620000008336893697216896647_">
			<use xlink:href="#SVGID_1_"  style="overflow:visible;"/>
		</clipPath>
		<g style="clip-path:url(#SVGID_00000151524850143074930620000008336893697216896647_);">
			<path style="fill:#C6FF00;" d="M108.242,293.866c0.053,0.034,1.1-4.018,1.137-4.282c0.424-3.047-0.547-9.183-3.649-10.682
				c-2.234-1.079-4.733,0.219-5.547,2.456c-0.832,2.285,0.223,5.089,1.471,7.018C103.12,290.642,108.238,293.864,108.242,293.866z"
				/>
			<path style="fill:#C6FF00;" d="M126.29,271.954c-3.425-0.369-7.495,4.325-8.747,7.135c-0.108,0.243-1.363,4.235-1.3,4.235
				c0,0,0.059-0.001,0.073-0.001c-0.648,0.736-1.335,1.533-2.067,2.418c-1.34,1.646-2.839,3.518-4.332,5.665
				c-1.498,2.142-3.066,4.512-4.492,7.156c-1.433,2.649-2.805,5.509-3.838,8.638c-0.012,0.035-0.019,0.074-0.031,0.109
				c0.018-1.009-0.027-3.832-0.055-4.048c-0.395-3.051-2.952-8.713-6.34-9.339c-2.441-0.451-4.507,1.461-4.702,3.834
				c-0.199,2.424,1.559,4.85,3.273,6.38c1.932,1.726,7.297,3.398,7.724,3.53c-0.956,2.989-1.694,6.134-2.266,9.358
				c-0.329,1.843-0.603,3.71-0.854,5.584c-0.013-0.873-0.031-1.653-0.045-1.762c-0.396-3.051-2.953-8.713-6.34-9.339
				c-2.441-0.451-4.507,1.461-4.702,3.834c-0.199,2.424,1.559,4.85,3.273,6.38c1.739,1.553,6.283,3.07,7.491,3.455
				c-0.089,0.72-0.185,1.439-0.271,2.159c-0.414,3.457-0.811,6.909-1.304,10.283c-0.173,1.189-0.388,2.354-0.598,3.52
				c-0.012-0.775-0.029-1.428-0.042-1.527c-0.396-3.051-2.952-8.713-6.34-9.339c-2.441-0.451-4.508,1.461-4.702,3.834
				c-0.199,2.423,1.559,4.85,3.273,6.38c1.659,1.482,5.841,2.92,7.275,3.385c-0.252,1.187-0.501,2.377-0.798,3.517
				c-0.221,0.773-0.379,1.533-0.644,2.298c-0.246,0.762-0.49,1.517-0.731,2.265c-0.518,1.423-1.043,2.893-1.583,4.268
				c-0.368,0.959-0.736,1.866-1.105,2.781c0.187-1.181,0.502-3.502,0.507-3.699c0.047-2.044-0.678-5.365-2.123-7.701
				c0.009-0.302-0.009-0.603-0.057-0.902c-0.378-2.351-2.587-4.097-4.985-3.458c-3.329,0.886-5.44,6.729-5.598,9.802
				c-0.009,0.181,0.11,2.159,0.205,3.405c-0.168-0.724-0.322-1.429-0.504-2.172c-0.349-1.472-0.741-2.931-1.156-4.503
				c-0.227-0.752-0.457-1.511-0.689-2.277c-0.213-0.766-0.537-1.547-0.804-2.329c-0.659-1.8-1.413-3.592-2.214-5.381
				c1.288-0.309,5.848-1.471,7.679-2.876c1.823-1.398,3.756-3.687,3.739-6.119c-0.017-2.381-1.935-4.442-4.403-4.174
				c-3.425,0.372-6.397,5.828-7.018,8.841c-0.039,0.188-0.242,2.4-0.33,3.617c-0.49-1.072-0.973-2.143-1.503-3.211
				c-1.531-3.083-3.176-6.155-4.804-9.228c-0.499-0.941-0.985-1.884-1.475-2.827c0.46-0.105,5.91-1.369,7.961-2.943
				c1.823-1.398,3.756-3.687,3.739-6.119c-0.017-2.381-1.936-4.442-4.403-4.174c-3.425,0.372-6.397,5.828-7.019,8.84
				c-0.047,0.227-0.334,3.41-0.368,4.223c-1.078-2.076-2.134-4.156-3.092-6.248c-1.325-2.885-2.466-5.789-3.363-8.684
				c0.214-0.048,5.908-1.342,8.009-2.954c1.823-1.398,3.756-3.687,3.739-6.119c-0.017-2.381-1.936-4.442-4.403-4.174
				c-3.425,0.372-6.397,5.828-7.018,8.84c-0.041,0.198-0.263,2.624-0.341,3.78c-0.108,0.011-0.088,0.009-0.195,0.021
				c-0.924-3.113-1.427-6.245-1.752-9.2c-0.192-1.711-0.28-3.357-0.33-4.96c1.085-0.132,6.038-0.792,8.089-2.033
				c1.965-1.19,4.138-3.252,4.388-5.671c0.244-2.369-1.436-4.628-3.918-4.632c-3.445-0.006-6.998,5.09-7.947,8.016
				c-0.052,0.159-0.397,1.835-0.632,3.059c-0.011-0.724-0.036-1.471-0.033-2.165c0.005-2.605,0.169-4.99,0.332-7.101
				c0.102-1.2,0.219-2.283,0.338-3.295c0.997-0.685,4.981-3.498,6.207-5.508c1.196-1.961,2.174-4.793,1.281-7.055
				c-0.875-2.215-3.407-3.445-5.612-2.306c-3.06,1.582-3.865,7.742-3.359,10.777c0.044,0.262,1.199,4.284,1.252,4.249
				c0,0,0.049-0.033,0.06-0.041c-0.134,0.972-0.268,2.015-0.39,3.157c-0.209,2.112-0.427,4.5-0.488,7.115
				c-0.068,2.613-0.069,5.454,0.201,8.446c0.266,3,0.699,6.142,1.565,9.322c0.01,0.036,0.025,0.072,0.035,0.108
				c-0.542-0.851-2.137-3.181-2.279-3.346c-2.013-2.326-7.269-5.638-10.44-4.292c-2.285,0.97-2.954,3.705-1.807,5.792
				c1.172,2.131,3.976,3.185,6.249,3.516c2.564,0.374,7.961-1.191,8.39-1.317c0.852,3.021,1.971,6.051,3.273,9.056
				c0.742,1.719,1.543,3.427,2.368,5.129c-0.492-0.721-0.938-1.362-1.01-1.445c-2.013-2.327-7.27-5.638-10.44-4.292
				c-2.285,0.97-2.953,3.705-1.806,5.792c1.171,2.131,3.976,3.185,6.249,3.517c2.307,0.336,6.935-0.906,8.155-1.251
				c0.323,0.65,0.639,1.302,0.965,1.95c1.563,3.111,3.136,6.21,4.585,9.296c0.512,1.087,0.975,2.177,1.443,3.266
				c-0.438-0.64-0.812-1.176-0.878-1.251c-2.013-2.326-7.269-5.638-10.44-4.292c-2.285,0.97-2.954,3.705-1.806,5.792
				c1.172,2.131,3.976,3.185,6.249,3.516c2.202,0.321,6.483-0.787,7.935-1.19c0.445,1.129,0.894,2.259,1.274,3.373
				c0.243,0.767,0.53,1.488,0.731,2.272c0.215,0.772,0.428,1.535,0.64,2.292c0.353,1.472,0.727,2.988,1.035,4.433
				c0.222,1.003,0.415,1.963,0.613,2.929c-0.496-1.088-1.513-3.198-1.618-3.365c-1.637-2.604-6.331-6.674-9.669-5.824
				c-2.405,0.613-3.481,3.215-2.663,5.451c0.835,2.284,3.447,3.75,5.644,4.423c2.419,0.74,7.775,0.064,8.444-0.025
				c0.321,1.6,0.618,3.16,0.874,4.636c0.902,5.115,1.459,9.41,1.806,12.417c0.062,0.534,0.114,1.011,0.162,1.461H69.306
				l3.199,62.417h18.84l3.199-62.417h-9.659c0.072-0.149,0.139-0.287,0.215-0.443c1.325-2.761,3.163-6.729,5.148-11.585
				c0.631-1.533,1.275-3.183,1.919-4.884c0.648,0.136,5.95,1.213,8.421,0.655c2.241-0.506,4.955-1.774,5.958-3.99
				c0.982-2.169,0.103-4.844-2.25-5.634c-3.265-1.097-8.25,2.612-10.076,5.087c-0.108,0.146-1.1,1.861-1.708,2.953
				c0.26-0.696,0.52-1.37,0.778-2.09c0.521-1.42,1-2.854,1.52-4.393c0.225-0.752,0.452-1.513,0.682-2.28
				c0.244-0.756,0.406-1.586,0.614-2.386c0.444-1.865,0.803-3.776,1.122-5.709c1.245,0.453,5.69,1.999,7.992,1.838
				c2.292-0.161,5.167-1.003,6.494-3.041c1.299-1.996,0.836-4.773-1.37-5.911c-3.062-1.579-8.55,1.332-10.731,3.502
				c-0.136,0.135-1.525,1.868-2.27,2.835c0.183-1.164,0.371-2.324,0.518-3.508c0.424-3.415,0.747-6.886,1.084-10.347
				c0.103-1.06,0.218-2.115,0.329-3.172c0.441,0.166,5.685,2.118,8.263,1.937c2.292-0.161,5.167-1.003,6.494-3.041
				c1.299-1.995,0.836-4.772-1.37-5.91c-3.062-1.579-8.551,1.332-10.731,3.502c-0.164,0.164-2.16,2.66-2.637,3.32
				c0.246-2.327,0.513-4.644,0.868-6.917c0.487-3.137,1.137-6.189,1.986-9.098c0.205,0.078,5.668,2.14,8.309,1.954
				c2.292-0.161,5.167-1.003,6.494-3.041c1.299-1.995,0.836-4.772-1.37-5.91c-3.062-1.579-8.55,1.332-10.731,3.502
				c-0.143,0.142-1.665,2.042-2.368,2.963c-0.096-0.05-0.079-0.041-0.175-0.091c0.947-3.105,2.255-5.995,3.613-8.638
				c0.784-1.533,1.618-2.954,2.462-4.319c0.978,0.488,5.473,2.671,7.868,2.767c2.296,0.092,5.246-0.429,6.789-2.309
				c1.511-1.841,1.355-4.652-0.713-6.025c-2.87-1.906-8.645,0.385-11.05,2.302c-0.131,0.104-1.343,1.311-2.214,2.203
				c0.39-0.61,0.781-1.247,1.166-1.824c1.441-2.17,2.894-4.069,4.195-5.74c0.747-0.944,1.442-1.783,2.1-2.561
				c1.21-0.021,6.084-0.17,8.215-1.17c2.079-0.977,4.458-2.799,4.96-5.178C130.191,274.643,128.758,272.22,126.29,271.954z
				 M88.367,363.977c-2.07,4.764-3.975,8.654-5.343,11.353c-0.276,0.544-0.524,1.025-0.754,1.469h-0.229
				c-0.067-0.527-0.143-1.103-0.231-1.75c-0.418-3.034-1.074-7.357-2.097-12.502c-0.319-1.626-0.693-3.358-1.093-5.132
				c0.402-0.16,2.687-1.084,4.711-2.215c1.763,1.909,6.281,4.144,6.866,4.428C89.579,361.139,88.967,362.604,88.367,363.977z"/>
			<path style="fill:#C6FF00;" d="M47.082,292.536c2.472,1.08,8.519,0.944,8.523,0.944c0.063-0.002-1.3-3.958-1.414-4.198
				c-1.327-2.775-5.522-7.358-8.937-6.897c-2.459,0.333-3.827,2.794-3.272,5.109C42.55,289.859,44.976,291.616,47.082,292.536z"/>
			<path style="opacity:0.3;fill:#FFFFFF;" d="M47.082,292.536c2.472,1.08,8.519,0.944,8.523,0.944
				c0.063-0.002-1.3-3.958-1.414-4.198c-1.327-2.775-5.522-7.358-8.937-6.897c-2.459,0.333-3.827,2.794-3.272,5.109
				C42.55,289.859,44.976,291.616,47.082,292.536z"/>
			<path style="opacity:0.3;fill:#FFFFFF;" d="M108.242,293.866c0.053,0.034,1.1-4.018,1.137-4.282
				c0.424-3.047-0.547-9.183-3.649-10.682c-2.234-1.079-4.733,0.219-5.547,2.456c-0.832,2.285,0.223,5.089,1.471,7.018
				C103.12,290.642,108.238,293.864,108.242,293.866z"/>
			<path style="opacity:0.3;fill:#FFFFFF;" d="M57.558,308.734c0.852,3.021,1.971,6.051,3.273,9.056
				c0.742,1.719,1.543,3.427,2.368,5.129c-0.492-0.721-0.938-1.362-1.01-1.445c-2.013-2.327-7.27-5.638-10.44-4.292
				c-2.285,0.97-2.953,3.705-1.806,5.792c1.171,2.131,3.976,3.185,6.249,3.517c2.307,0.336,6.935-0.906,8.155-1.251
				c0.323,0.65,0.639,1.302,0.965,1.95c1.563,3.111,3.136,6.21,4.585,9.296c0.512,1.087,0.975,2.177,1.443,3.266
				c-0.438-0.64-0.812-1.176-0.878-1.251c-2.013-2.326-7.269-5.638-10.44-4.292c-2.285,0.97-2.954,3.705-1.806,5.792
				c1.172,2.131,3.976,3.185,6.249,3.516c2.202,0.321,6.483-0.787,7.935-1.19c0.445,1.129,0.894,2.259,1.274,3.373
				c0.243,0.767,0.53,1.488,0.731,2.272c0.215,0.772,0.428,1.535,0.64,2.292c0.353,1.472,0.727,2.988,1.035,4.433
				c0.222,1.003,0.415,1.963,0.613,2.929c-0.496-1.088-1.513-3.198-1.618-3.365c-1.637-2.604-6.331-6.674-9.669-5.824
				c-2.405,0.613-3.481,3.215-2.663,5.451c0.835,2.284,3.447,3.75,5.644,4.423c2.419,0.74,7.775,0.064,8.444-0.025
				c0.321,1.6,0.618,3.16,0.874,4.636c0.902,5.115,1.459,9.41,1.806,12.417c0.062,0.534,0.114,1.011,0.162,1.461H69.306
				l3.199,62.417h18.84l3.199-62.417h-9.659c0.072-0.149,0.139-0.287,0.215-0.443c1.325-2.761,3.163-6.729,5.148-11.585
				c0.631-1.533,1.275-3.183,1.919-4.884c0.648,0.136,5.95,1.213,8.421,0.655c2.241-0.506,4.955-1.774,5.958-3.99
				c0.982-2.169,0.103-4.844-2.25-5.634c-3.265-1.097-8.25,2.612-10.076,5.087c-0.108,0.146-1.1,1.861-1.708,2.953
				c0.26-0.696,0.52-1.37,0.778-2.09c0.521-1.42,1-2.854,1.52-4.393c0.225-0.752,0.452-1.513,0.682-2.28
				c0.244-0.756,0.406-1.586,0.614-2.386c0.444-1.865,0.803-3.776,1.122-5.709c1.245,0.453,5.69,1.999,7.992,1.838
				c2.292-0.161,5.167-1.003,6.494-3.041c1.299-1.996,0.836-4.773-1.37-5.911c-3.062-1.579-8.55,1.332-10.731,3.502
				c-0.136,0.135-1.525,1.868-2.27,2.835c0.183-1.164,0.371-2.324,0.518-3.508c0.424-3.415,0.747-6.886,1.084-10.347
				c0.103-1.06,0.218-2.115,0.329-3.172c0.441,0.166,5.685,2.118,8.263,1.937c2.292-0.161,5.167-1.003,6.494-3.041
				c1.299-1.995,0.836-4.772-1.37-5.91c-3.062-1.579-8.551,1.332-10.731,3.502c-0.164,0.164-2.16,2.66-2.637,3.32
				c0.246-2.327,0.513-4.644,0.868-6.917c0.487-3.137,1.137-6.189,1.986-9.098c0.205,0.078,5.668,2.14,8.309,1.954
				c2.292-0.161,5.167-1.003,6.494-3.041c1.299-1.995,0.836-4.772-1.37-5.91c-3.062-1.579-8.55,1.332-10.731,3.502
				c-0.143,0.142-1.665,2.042-2.368,2.963c-0.096-0.05-0.079-0.041-0.175-0.091c0.947-3.105,2.255-5.995,3.613-8.638
				c0.784-1.533,1.618-2.954,2.462-4.319c0.978,0.488,5.473,2.671,7.868,2.767c2.296,0.092,5.246-0.429,6.789-2.309
				c1.511-1.841,1.355-4.652-0.713-6.025c-2.87-1.906-8.645,0.385-11.05,2.302c-0.131,0.104-1.343,1.311-2.214,2.203
				c0.39-0.61,0.781-1.247,1.166-1.824c1.441-2.17,2.894-4.069,4.195-5.74c0.747-0.944,1.442-1.783,2.1-2.561
				c1.21-0.021,6.084-0.17,8.215-1.17c2.079-0.977,4.458-2.799,4.96-5.178c0.493-2.33-0.941-4.753-3.409-5.019
				c-3.425-0.369-7.495,4.325-8.747,7.135c-0.108,0.243-1.363,4.235-1.3,4.235c0,0,0.059-0.001,0.073-0.001
				c-0.648,0.736-1.335,1.533-2.067,2.418c-1.34,1.646-2.839,3.518-4.332,5.665c-1.498,2.142-3.066,4.512-4.492,7.156
				c-1.433,2.649-2.805,5.509-3.838,8.638c-0.012,0.035-0.019,0.074-0.031,0.109c0.018-1.009-0.027-3.832-0.055-4.048
				c-0.395-3.051-2.952-8.713-6.34-9.339c-2.441-0.451-4.507,1.461-4.702,3.834c-0.199,2.424,1.559,4.85,3.273,6.38
				c1.932,1.726,7.297,3.398,7.724,3.53c-0.956,2.989-1.694,6.134-2.266,9.358c-0.329,1.843-0.603,3.71-0.854,5.584
				c-0.013-0.873-0.031-1.653-0.045-1.762c-0.396-3.051-2.953-8.713-6.34-9.339c-2.441-0.451-4.507,1.461-4.702,3.834
				c-0.199,2.424,1.559,4.85,3.273,6.38c1.739,1.553,6.283,3.07,7.491,3.455c-0.089,0.72-0.185,1.439-0.271,2.159
				c-0.414,3.457-0.811,6.909-1.304,10.283c-0.173,1.189-0.388,2.354-0.598,3.52c-0.012-0.775-0.029-1.428-0.042-1.527
				c-0.396-3.051-2.952-8.713-6.34-9.339c-2.441-0.451-4.508,1.461-4.702,3.834c-0.199,2.423,1.559,4.85,3.273,6.38
				c1.659,1.482,5.841,2.92,7.275,3.385c-0.252,1.187-0.501,2.377-0.798,3.517c-0.221,0.773-0.379,1.533-0.644,2.298
				c-0.246,0.762-0.49,1.517-0.731,2.265c-0.518,1.423-1.043,2.893-1.583,4.268c-0.368,0.959-0.736,1.866-1.105,2.781
				c0.187-1.181,0.502-3.502,0.507-3.699c0.047-2.044-0.678-5.365-2.123-7.701c0.009-0.302-0.009-0.603-0.057-0.902
				c-0.378-2.351-2.587-4.097-4.985-3.458c-3.329,0.886-5.44,6.729-5.598,9.802c-0.009,0.181,0.11,2.159,0.205,3.405
				c-0.168-0.724-0.322-1.429-0.504-2.172c-0.349-1.472-0.741-2.931-1.156-4.503c-0.227-0.752-0.457-1.511-0.689-2.277
				c-0.213-0.766-0.537-1.547-0.804-2.329c-0.659-1.8-1.413-3.592-2.214-5.381c1.288-0.309,5.848-1.471,7.679-2.876
				c1.823-1.398,3.756-3.687,3.739-6.119c-0.017-2.381-1.935-4.442-4.403-4.174c-3.425,0.372-6.397,5.828-7.018,8.841
				c-0.039,0.188-0.242,2.4-0.33,3.617c-0.49-1.072-0.973-2.143-1.503-3.211c-1.531-3.083-3.176-6.155-4.804-9.228
				c-0.499-0.941-0.985-1.884-1.475-2.827c0.46-0.105,5.91-1.369,7.961-2.943c1.823-1.398,3.756-3.687,3.739-6.119
				c-0.017-2.381-1.936-4.442-4.403-4.174c-3.425,0.372-6.397,5.828-7.019,8.84c-0.047,0.227-0.334,3.41-0.368,4.223
				c-1.078-2.076-2.134-4.156-3.092-6.248c-1.325-2.885-2.466-5.789-3.363-8.684c0.214-0.048,5.908-1.342,8.009-2.954
				c1.823-1.398,3.756-3.687,3.739-6.119c-0.017-2.381-1.936-4.442-4.403-4.174c-3.425,0.372-6.397,5.828-7.018,8.84
				c-0.041,0.198-0.263,2.624-0.341,3.78c-0.108,0.011-0.088,0.009-0.195,0.021c-0.924-3.113-1.427-6.245-1.752-9.2
				c-0.192-1.711-0.28-3.357-0.33-4.96c1.085-0.132,6.038-0.792,8.089-2.033c1.965-1.19,4.138-3.252,4.388-5.671
				c0.244-2.369-1.436-4.628-3.918-4.632c-3.445-0.006-6.998,5.09-7.947,8.016c-0.052,0.159-0.397,1.835-0.632,3.059
				c-0.011-0.724-0.036-1.471-0.033-2.165c0.005-2.605,0.169-4.99,0.332-7.101c0.102-1.2,0.219-2.283,0.338-3.295
				c0.997-0.685,4.981-3.498,6.207-5.508c1.196-1.961,2.174-4.793,1.281-7.055c-0.875-2.215-3.407-3.445-5.612-2.306
				c-3.06,1.582-3.865,7.742-3.359,10.777c0.044,0.262,1.199,4.284,1.252,4.249c0,0,0.049-0.033,0.06-0.041
				c-0.134,0.972-0.268,2.015-0.39,3.157c-0.209,2.112-0.427,4.5-0.488,7.115c-0.068,2.613-0.069,5.454,0.201,8.446
				c0.266,3,0.699,6.142,1.565,9.322c0.01,0.036,0.025,0.072,0.035,0.108c-0.542-0.851-2.137-3.181-2.279-3.346
				c-2.013-2.326-7.269-5.638-10.44-4.292c-2.285,0.97-2.954,3.705-1.807,5.792c1.172,2.131,3.976,3.185,6.249,3.516
				C51.733,310.425,57.13,308.86,57.558,308.734z M83.328,355.199c1.763,1.909,6.281,4.144,6.866,4.428
				c-0.615,1.512-1.228,2.977-1.828,4.349c-2.07,4.764-3.975,8.654-5.343,11.353c-0.276,0.544-0.524,1.025-0.754,1.469h-0.229
				c-0.067-0.527-0.143-1.103-0.231-1.75c-0.418-3.034-1.074-7.357-2.097-12.502c-0.319-1.626-0.693-3.358-1.093-5.132
				C79.02,357.254,81.304,356.33,83.328,355.199z"/>
		</g>
	</g>
</g>
<g id="Device">
	<g>
		<g>
			<path style="fill:none;stroke:#263238;stroke-linecap:round;stroke-linejoin:round;stroke-miterlimit:10;" d="M429.885,423.478
				H99.77V219.659c0-5.775,4.681-10.456,10.456-10.456H419.43c5.775,0,10.456,4.681,10.456,10.456V423.478z"/>
			
				<rect id="XMLID_51_" x="113.162" y="225.944" style="fill:none;stroke:#263238;stroke-linecap:round;stroke-linejoin:round;stroke-miterlimit:10;" width="303.332" height="171.419"/>
			
				<rect x="152.148" y="413.162" style="fill:#263238;stroke:#263238;stroke-linecap:round;stroke-linejoin:round;stroke-miterlimit:10;" width="226.873" height="11.178"/>
			
				<rect x="152.148" y="418.544" style="fill:#FFFFFF;stroke:#263238;stroke-linecap:round;stroke-linejoin:round;stroke-miterlimit:10;" width="226.873" height="5.796"/>
			<path style="fill:#263238;stroke:#263238;stroke-linecap:round;stroke-linejoin:round;stroke-miterlimit:10;" d="M73.073,430.965
				c0,0,3.726,4.554,14.904,8.28h355.214c0,0,8.28-2.07,12.006-7.866L73.073,430.965z"/>
			<path style="fill:#FFFFFF;stroke:#263238;stroke-linecap:round;stroke-linejoin:round;stroke-miterlimit:10;" d="
				M454.105,431.513H74.21c-1.046,0-1.895-0.848-1.895-1.895v-4.915c0-1.046,0.848-1.895,1.895-1.895h379.895
				c1.046,0,1.895,0.848,1.895,1.895v4.915C456,430.664,455.152,431.513,454.105,431.513z"/>
			<path style="fill:#FFFFFF;stroke:#263238;stroke-linecap:round;stroke-linejoin:round;stroke-miterlimit:10;" d="
				M267.654,215.684c0-1.6-1.297-2.898-2.898-2.898c-1.6,0-2.898,1.298-2.898,2.898c0,1.6,1.297,2.898,2.898,2.898
				C266.357,218.581,267.654,217.284,267.654,215.684z"/>
			<path style="fill:#263238;stroke:#FFFFFF;stroke-width:0.6917;stroke-miterlimit:10;" d="M102.882,269.504L102.882,269.504
				c-0.457,0-0.828-0.371-0.828-0.828v-24.012c0-0.457,0.371-0.828,0.828-0.828l0,0c0.457,0,0.828,0.371,0.828,0.828v24.012
				C103.709,269.133,103.339,269.504,102.882,269.504z"/>
			
				<line style="fill:none;stroke:#263238;stroke-linecap:round;stroke-linejoin:round;stroke-miterlimit:10;" x1="334.124" y1="225.941" x2="334.124" y2="397.301"/>
			
				<line style="fill:none;stroke:#263238;stroke-linecap:round;stroke-linejoin:round;stroke-miterlimit:10;" x1="338.372" y1="225.941" x2="338.372" y2="397.301"/>
			
				<line style="fill:none;stroke:#263238;stroke-linecap:round;stroke-linejoin:round;stroke-miterlimit:10;" x1="113.332" y1="385.979" x2="334.125" y2="385.979"/>
			
				<line style="fill:none;stroke:#263238;stroke-linecap:round;stroke-linejoin:round;stroke-miterlimit:10;" x1="123.065" y1="364.643" x2="197.74" y2="364.643"/>
			
				<line style="fill:none;stroke:#263238;stroke-linecap:round;stroke-linejoin:round;stroke-miterlimit:10;" x1="123.065" y1="357.531" x2="197.74" y2="357.531"/>
			
				<line style="fill:none;stroke:#263238;stroke-linecap:round;stroke-linejoin:round;stroke-miterlimit:10;" x1="123.065" y1="350.419" x2="197.74" y2="350.419"/>
			
				<line style="fill:none;stroke:#263238;stroke-linecap:round;stroke-linejoin:round;stroke-miterlimit:10;" x1="123.065" y1="343.307" x2="197.74" y2="343.307"/>
			
				<line style="fill:none;stroke:#263238;stroke-linecap:round;stroke-linejoin:round;stroke-miterlimit:10;" x1="123.065" y1="336.195" x2="197.74" y2="336.195"/>
			
				<line style="fill:none;stroke:#263238;stroke-linecap:round;stroke-linejoin:round;stroke-miterlimit:10;" x1="123.065" y1="315.452" x2="197.74" y2="315.452"/>
			
				<line style="fill:none;stroke:#263238;stroke-linecap:round;stroke-linejoin:round;stroke-miterlimit:10;" x1="123.065" y1="308.34" x2="197.74" y2="308.34"/>
			
				<line style="fill:none;stroke:#263238;stroke-linecap:round;stroke-linejoin:round;stroke-miterlimit:10;" x1="123.065" y1="301.228" x2="197.74" y2="301.228"/>
			
				<line style="fill:none;stroke:#263238;stroke-linecap:round;stroke-linejoin:round;stroke-miterlimit:10;" x1="123.065" y1="294.116" x2="197.74" y2="294.116"/>
			
				<line style="fill:none;stroke:#263238;stroke-linecap:round;stroke-linejoin:round;stroke-miterlimit:10;" x1="123.065" y1="287.004" x2="197.74" y2="287.004"/>
		</g>
		<g>
			<g id="XMLID_55_">
				
					<path id="XMLID_59_" style="fill:#C6FF00;stroke:#263238;stroke-linecap:round;stroke-linejoin:round;stroke-miterlimit:10;" d="
					M379.341,242.182c-0.529,0-0.977,0.429-1,0.958l-0.056,1.305h-16.141l-0.953,22.628h30.997l0.716-17.153l0.237-5.474
					l0.098-2.263H379.341z"/>
				
					<polygon id="XMLID_58_" style="fill:#FFFFFF;stroke:#263238;stroke-linecap:round;stroke-linejoin:round;stroke-miterlimit:10;" points="
					392.187,267.072 392.05,246.022 362.262,246.022 362.501,266.818 				"/>
				
					<polygon id="XMLID_57_" style="fill:#FFFFFF;stroke:#263238;stroke-linecap:round;stroke-linejoin:round;stroke-miterlimit:10;" points="
					392.187,267.072 390.833,246.022 361.044,246.022 361.283,266.818 				"/>
				
					<polygon id="XMLID_56_" style="fill:#C6FF00;stroke:#263238;stroke-linecap:round;stroke-linejoin:round;stroke-miterlimit:10;" points="
					361.19,267.072 357.045,245.366 388.238,245.366 392.187,267.072 				"/>
			</g>
			<g id="XMLID_60_">
				
					<path id="XMLID_64_" style="fill:#C6FF00;stroke:#263238;stroke-linecap:round;stroke-linejoin:round;stroke-miterlimit:10;" d="
					M379.341,280.417c-0.529,0-0.977,0.429-1,0.958l-0.056,1.305h-16.141l-0.953,22.628h30.997l0.716-17.153l0.237-5.474
					l0.098-2.263H379.341z"/>
				
					<polygon id="XMLID_63_" style="fill:#FFFFFF;stroke:#263238;stroke-linecap:round;stroke-linejoin:round;stroke-miterlimit:10;" points="
					392.187,305.307 392.05,284.256 362.262,284.256 362.501,305.052 				"/>
				
					<polygon id="XMLID_62_" style="fill:#FFFFFF;stroke:#263238;stroke-linecap:round;stroke-linejoin:round;stroke-miterlimit:10;" points="
					392.187,305.307 390.833,284.256 361.044,284.256 361.283,305.052 				"/>
				
					<polygon id="XMLID_61_" style="fill:#C6FF00;stroke:#263238;stroke-linecap:round;stroke-linejoin:round;stroke-miterlimit:10;" points="
					361.19,305.307 357.045,283.601 388.238,283.601 392.187,305.307 				"/>
			</g>
			<g id="XMLID_65_">
				
					<path id="XMLID_69_" style="fill:#C6FF00;stroke:#263238;stroke-linecap:round;stroke-linejoin:round;stroke-miterlimit:10;" d="
					M379.341,318.651c-0.529,0-0.977,0.429-1,0.958l-0.056,1.305h-16.141l-0.953,22.628h30.997l0.716-17.153l0.237-5.474
					l0.098-2.263H379.341z"/>
				
					<polygon id="XMLID_68_" style="fill:#FFFFFF;stroke:#263238;stroke-linecap:round;stroke-linejoin:round;stroke-miterlimit:10;" points="
					392.187,343.542 392.05,322.491 362.262,322.491 362.501,343.287 				"/>
				
					<polygon id="XMLID_67_" style="fill:#FFFFFF;stroke:#263238;stroke-linecap:round;stroke-linejoin:round;stroke-miterlimit:10;" points="
					392.187,343.542 390.833,322.491 361.044,322.491 361.283,343.287 				"/>
				
					<polygon id="XMLID_66_" style="fill:#C6FF00;stroke:#263238;stroke-linecap:round;stroke-linejoin:round;stroke-miterlimit:10;" points="
					361.19,343.542 357.045,321.835 388.238,321.835 392.187,343.542 				"/>
			</g>
			<g id="XMLID_70_">
				
					<path id="XMLID_74_" style="fill:#C6FF00;stroke:#263238;stroke-linecap:round;stroke-linejoin:round;stroke-miterlimit:10;" d="
					M379.341,356.886c-0.529,0-0.977,0.429-1,0.958l-0.056,1.305h-16.141l-0.953,22.628h30.997l0.716-17.153l0.237-5.474
					l0.098-2.263H379.341z"/>
				
					<polygon id="XMLID_73_" style="fill:#FFFFFF;stroke:#263238;stroke-linecap:round;stroke-linejoin:round;stroke-miterlimit:10;" points="
					392.187,381.776 392.05,360.726 362.262,360.726 362.501,381.521 				"/>
				
					<polygon id="XMLID_72_" style="fill:#FFFFFF;stroke:#263238;stroke-linecap:round;stroke-linejoin:round;stroke-miterlimit:10;" points="
					392.187,381.776 390.833,360.726 361.044,360.726 361.283,381.521 				"/>
				
					<polygon id="XMLID_71_" style="fill:#C6FF00;stroke:#263238;stroke-linecap:round;stroke-linejoin:round;stroke-miterlimit:10;" points="
					361.19,381.776 357.045,360.07 388.238,360.07 392.187,381.776 				"/>
			</g>
		</g>
	</g>
</g>
<g id="Character">
	<g>
		<defs>
			
				<rect id="SVGID_00000008838166086496962540000017615596058738537113_" x="219.171" y="222.512" width="104.637" height="199.939"/>
		</defs>
		<clipPath id="SVGID_00000181780489326061484950000005800300460786676135_">
			<use xlink:href="#SVGID_00000008838166086496962540000017615596058738537113_"  style="overflow:visible;"/>
		</clipPath>
		<g style="clip-path:url(#SVGID_00000181780489326061484950000005800300460786676135_);">
			<g id="XMLID_32_">
				
					<path id="XMLID_27_" style="fill:#263238;stroke:#263238;stroke-linecap:round;stroke-linejoin:round;stroke-miterlimit:10;" d="
					M294.22,418.346c0,0,2.327,3.237,2.124,6.677c-0.202,3.44,8.296,7.183,10.622,5.767c2.327-1.416,2.731-5.261,1.012-7.689
					c-1.72-2.428-4.654-5.362-5.159-5.969c-0.506-0.607-0.506-1.113-2.124-1.113C299.076,416.019,294.827,415.918,294.22,418.346z"
					/>
				
					<path id="XMLID_37_" style="fill:#FFFFFF;stroke:#263238;stroke-linecap:round;stroke-linejoin:round;stroke-miterlimit:10;" d="
					M308.432,423.885c0.016,0.816-0.031,1.761-0.251,2.554c-0.506,1.821-1.012,1.922-1.012,1.922l-0.91-1.416l-1.922,0.506
					l-0.101,1.821c0,0-2.125,0.101-3.237-0.405c-1.113-0.506-3.339-1.72-3.743-4.148c-0.308-1.851-1.616-4.054-2.22-4.996
					c0.649,1.263,1.431,3.245,1.31,5.3c-0.202,3.44,8.296,7.183,10.622,5.767C309.056,429.517,309.59,426.289,308.432,423.885z"/>
			</g>
			<g id="XMLID_33_">
				
					<path id="XMLID_31_" style="fill:#263238;stroke:#263238;stroke-linecap:round;stroke-linejoin:round;stroke-miterlimit:10;" d="
					M272.874,415.817c0,0-2.833,2.529-6.07,4.249c-3.237,1.72-6.98,1.012-7.486,2.63c-0.506,1.619,2.125,3.136,7.992,3.945
					c5.868,0.809,6.879-0.607,9.409-1.518c2.529-0.91,6.98-0.202,7.992-0.91c1.012-0.708,0.101-3.44-0.303-5.969
					c-0.405-2.529-0.607-3.237-0.607-3.237s-2.327,1.315-5.665,0.91C274.796,415.513,272.874,415.817,272.874,415.817z"/>
				
					<path id="XMLID_35_" style="fill:#FFFFFF;stroke:#263238;stroke-linecap:round;stroke-linejoin:round;stroke-miterlimit:10;" d="
					M276.718,425.124c2.529-0.91,6.98-0.202,7.992-0.91c0.681-0.477,0.49-1.871,0.17-3.502c-0.842,0.518-2.172,1.265-3.306,1.58
					c-1.821,0.506-4.451,1.012-7.992,2.327c-3.541,1.315-6.576,0.506-9.105-0.506c-2.529-1.012-1.518-0.91-1.214-1.922
					c0.114-0.379,0.014-0.702-0.155-0.956c-1.914,0.349-3.477,0.457-3.791,1.462c-0.506,1.619,2.125,3.136,7.992,3.945
					C273.177,427.451,274.189,426.034,276.718,425.124z"/>
			</g>
			<g>
				
					<path id="XMLID_23_" style="fill:#C6FF00;stroke:#263238;stroke-linecap:round;stroke-linejoin:round;stroke-miterlimit:10;" d="
					M267.107,314.549c0,0-0.708,6.778-0.708,21.65c0,14.871,1.113,27.618,1.922,33.789c0.809,6.171,1.012,6.272,1.113,7.082
					c0.101,0.809,3.844,23.774,3.844,25.19c0,1.416,0,1.922,0,1.922s-2.023,2.023-1.315,3.844c0.708,1.821,1.922,5.564,1.619,5.665
					s-1.416,0.607-1.416,1.517c0,0.911,0,0.911,0,0.911s1.517,2.023,5.058,2.732c3.541,0.708,4.654,1.214,5.564-0.101
					c0.91-1.315,2.124-3.237,2.529-5.159c0.405-1.922,0.91-2.833-0.303-4.755c-1.214-1.922-1.619-2.732-1.619-3.743
					c0-1.012,1.416-17.805,0.506-23.572c-0.91-5.766-1.72-9.51-1.72-12.545c0-3.035,0.91-29.136,0.91-29.136
					s5.16,32.272,5.767,39.253c0.607,6.98,2.529,24.684,2.327,25.797c-0.202,1.113-1.72,2.833-1.012,4.654
					c0.708,1.821,2.731,4.451,2.731,4.451s-0.708,0.506-0.303,1.518c0.405,1.012,1.214,2.731,1.619,2.833
					c0.405,0.101,8.599-1.214,8.599-1.214s2.934-5.058,2.023-7.689c-0.911-2.63-1.821-3.844-1.821-4.148s0.91-4.553,1.012-8.195
					c0.101-3.642-3.237-39.556-3.237-39.556s-1.416-32.474-1.416-32.778s-0.303-5.463-0.303-5.463s-10.724,7.082-19.93,4.047
					C269.94,320.316,267.107,314.549,267.107,314.549z"/>
				
					<line id="XMLID_28_" style="fill:none;stroke:#263238;stroke-linecap:round;stroke-linejoin:round;stroke-miterlimit:10;" x1="283.091" y1="339.841" x2="281.877" y2="335.997"/>
				
					<line id="XMLID_30_" style="fill:none;stroke:#263238;stroke-linecap:round;stroke-linejoin:round;stroke-miterlimit:10;" x1="283.395" y1="337.008" x2="279.045" y2="334.378"/>
			</g>
			<g>
				
					<path id="XMLID_14_" style="fill:#D9D9D9;stroke:#263238;stroke-linecap:round;stroke-linejoin:round;stroke-miterlimit:10;" d="
					M282.423,259.268c0,0-7.375-1.068-8.54-0.291c-1.164,0.776-5.337,7.278-7.375,9.995c-2.038,2.717-15.721,14.265-15.721,14.265
					l-11.95-23.033c0,0,0.776-3.493,0.776-5.24c0-1.747-0.873-2.814-0.873-4.464s0.776-4.076,0.388-4.658
					c-0.388-0.582-1.456,0.097-2.135,1.262c-0.679,1.164-0.582,4.367-0.582,4.367s-6.08-7.504-6.599-8.443
					c-0.141-0.255-1.165-0.194-1.165,0.582c0,0.776,3.785,7.86,3.785,7.86s-0.388,0.582-0.776,0.582
					c-0.388,0-5.725-6.405-6.017-6.502c-0.291-0.097-1.164,0.097-0.679,1.165c0.485,1.067,4.561,6.502,4.561,6.502
					s-1.941,0.097-2.329,0.291c-0.388,0.194-0.582,0.873-0.097,1.359s1.165,0.776,1.165,0.776s0.097,0.582,0.194,1.553
					c0.097,0.97-0.097,1.844,1.359,3.105c1.456,1.262,2.911,2.038,3.396,2.135c0.485,0.097,10.882,30.602,12.532,33.32
					c1.65,2.717,2.426,2.814,4.27,2.329c1.844-0.485,19.991-14.071,19.991-14.071s-0.776,24.94-1.65,26.686
					c-0.873,1.747-1.844,1.747-1.844,2.911c0,1.165,0.388,3.008,0.388,3.008s4.852,8.152,14.75,8.443
					c9.898,0.291,18.923-3.688,18.923-5.531c0-1.844-0.679-3.008-0.679-3.396c0-0.388,1.165-2.232,0.971-3.396
					c-0.194-1.165-0.873-1.456-0.679-3.202c0.194-1.747,8.54-26.686,8.928-34.353c0.388-7.666,0.485-8.249-1.359-9.607
					c-1.844-1.359-8.637-2.523-8.637-2.523l-11.451-2.911l-4.561-0.388L282.423,259.268z"/>
				
					<path id="XMLID_22_" style="fill:#263238;stroke:#263238;stroke-linecap:round;stroke-linejoin:round;stroke-miterlimit:10;" d="
					M309.11,275.182c0.388-7.666,0.485-8.249-1.359-9.607c-1.844-1.359-8.637-2.523-8.637-2.523l-11.451-2.911l-4.561-0.388
					l-0.679-0.485c0,0-7.375-1.068-8.54-0.291c-1.164,0.776-5.337,7.278-7.375,9.995c-2.038,2.717-15.721,14.265-15.721,14.265
					l-3.991-8.124l-7.32,4.88c3.001,7.922,5.625,14.709,6.265,15.763c1.65,2.717,2.426,2.814,4.27,2.329
					c1.844-0.485,19.991-14.071,19.991-14.071s-0.776,24.94-1.65,26.686c-0.873,1.747-1.844,1.747-1.844,2.911
					c0,1.165,0.388,3.008,0.388,3.008s4.852,8.152,14.75,8.443c9.898,0.291,18.923-3.688,18.923-5.531
					c0-1.844-0.679-3.008-0.679-3.396c0-0.388,1.165-2.232,0.971-3.396c-0.194-1.165-0.873-1.456-0.679-3.202
					C300.376,307.789,308.722,282.849,309.11,275.182z"/>
				
					<polyline id="XMLID_2_" style="fill:none;stroke:#FFFFFF;stroke-width:0.75;stroke-linecap:round;stroke-linejoin:round;stroke-miterlimit:10;" points="
					270.053,272.536 270.002,284.013 267.569,272.649 				"/>
				<g>
					
						<path id="XMLID_24_" style="fill:none;stroke:#FFFFFF;stroke-width:0.75;stroke-linecap:round;stroke-linejoin:round;stroke-miterlimit:10;" d="
						M268.018,317.281c0,0,13.961,4.552,29.743-0.911"/>
					
						<path id="XMLID_1_" style="fill:none;stroke:#FFFFFF;stroke-width:0.75;stroke-linecap:round;stroke-linejoin:round;stroke-miterlimit:10;" d="
						M290.148,321.79c0.954-0.116,1.941-0.269,2.959-0.462"/>
					
						<path id="XMLID_25_" style="fill:none;stroke:#FFFFFF;stroke-width:0.75;stroke-linecap:round;stroke-linejoin:round;stroke-miterlimit:10;" d="
						M270.648,318.596c0,0,5.349,3.611,15.069,3.493"/>
				</g>
				<path id="XMLID_16_" style="fill:none;stroke:#263238;stroke-linecap:round;stroke-linejoin:round;stroke-miterlimit:10;" d="
					M236.412,251.47c0,0-0.034,0.984-0.617,1.955c-0.582,0.97-1.324,1.345-1.421,3.091c-0.097,1.747,1.067,2.62,1.067,2.62"/>
				
					<path id="XMLID_11_" style="fill:#D9D9D9;stroke:#263238;stroke-linecap:round;stroke-linejoin:round;stroke-miterlimit:10;" d="
					M230.201,254.284c0,0-3.882-2.717-4.658-2.232c-0.776,0.485-1.164,1.941-0.291,2.717c0.873,0.776,4.658,1.359,5.337,0.97
					C231.269,255.352,230.824,254.682,230.201,254.284z"/>
				
					<path id="XMLID_18_" style="fill:#D9D9D9;stroke:#263238;stroke-linecap:round;stroke-linejoin:round;stroke-miterlimit:10;" d="
					M231.404,257.292c0,0-2.719-0.58-3.371-0.689c-0.652-0.109-1.051,0.254-1.015,0.942c0.036,0.689,0.725,1.124,1.776,1.16
					c1.051,0.036,3.371,0.435,3.48-0.58C232.383,257.11,231.404,257.292,231.404,257.292z"/>
			</g>
			<path id="XMLID_15_" style="fill:none;stroke:#263238;stroke-linecap:round;stroke-linejoin:round;stroke-miterlimit:10;" d="
				M287.687,253.621c0,0,5.415-0.175,7.249-1.048"/>
			<g id="XMLID_17_">
				
					<path id="XMLID_19_" style="fill:#CCCCCC;stroke:#263238;stroke-linecap:round;stroke-linejoin:round;stroke-miterlimit:10;" d="
					M300.188,270.947c0,0-11.027,11.229-14.568,15.478s-8.093,7.992-8.093,7.992l-24.451-16.246c0,0-1.821-2.732-2.529-4.249
					c-0.708-1.517-1.821-1.922-2.732-4.249c-0.911-2.327-1.821-3.844-2.529-2.226c-0.708,1.619-0.405,2.124,0,2.934
					c0.405,0.809,1.821,3.237,1.821,3.237s-6.07-2.428-8.195-3.338c-2.124-0.911-4.35-1.214-4.451-0.405
					c-0.101,0.809,0.303,0.708,1.315,1.113c1.012,0.405,7.284,3.844,7.284,3.844l-0.607,0.303c0,0-8.296-1.518-9.105-1.619
					c-0.809-0.101-0.607,1.012,0,1.315c0.607,0.303,3.743,1.821,3.743,1.821s-0.708,0.607,0.101,1.72
					c0.809,1.113,2.63,2.428,2.63,2.428s0.303,1.315,1.113,1.922c0.809,0.607,6.07,0.506,8.296,0.708
					c2.226,0.202,3.237,0.708,3.237,0.708s25.766,22.013,27.486,22.013c1.72,0,25.696-22.661,28.326-26
					c2.63-3.339,4.553-9.206,2.934-11.938c-1.619-2.732-4.148-3.339-5.766-2.732"/>
				
					<path id="XMLID_20_" style="fill:#FFFFFF;stroke:#263238;stroke-linecap:round;stroke-linejoin:round;stroke-miterlimit:10;" d="
					M237.092,276.654c0,0,3.237,1.113,4.249,1.416"/>
				
					<line id="XMLID_21_" style="fill:#FFFFFF;stroke:#263238;stroke-linecap:round;stroke-linejoin:round;stroke-miterlimit:10;" x1="239.824" y1="280.801" x2="241.948" y2="281.105"/>
				
					<path id="XMLID_26_" style="fill:#263238;stroke:#FFFFFF;stroke-width:0.75;stroke-linecap:round;stroke-linejoin:round;stroke-miterlimit:10;" d="
					M300.188,270.947c0,0-11.027,11.229-14.568,15.478s-8.093,7.992-8.093,7.992l-6.539-4.226l-3.696,6.944
					c6.446,4.935,11.983,9.017,12.663,9.017c1.72,0,25.696-22.661,28.326-26c2.63-3.339,4.553-9.206,2.934-11.938
					c-1.619-2.732-4.148-3.339-5.766-2.732l-1.474,0.924"/>
			</g>
			<g>
				
					<path id="XMLID_29_" style="fill:#FFFFFF;stroke:#263238;stroke-linecap:round;stroke-linejoin:round;stroke-miterlimit:10;" d="
					M299.114,263.052l-11.451-2.911l-3.644-0.319l-1.596-0.555c0,0-0.83-0.12-1.975-0.25l-0.29,22.248l22.851-17.397
					C300.972,263.371,299.114,263.052,299.114,263.052z"/>
				<g>
					
						<path id="XMLID_5_" style="fill:#D9D9D9;stroke:#263238;stroke-linecap:round;stroke-linejoin:round;stroke-miterlimit:10;" d="
						M296.247,227.427c-2.379,0.043-4.835,0.757-6.463,2.439c-2.62,2.707-2.795,4.454-3.843,5.415
						c-1.048,0.961-3.057,0.873-4.454,3.843c-1.397,2.969-2.445,9.17-2.183,11.179c0.262,2.009,2.009,2.62,3.668,2.882
						c1.659,0.262,4.716,0.437,4.716,0.437s-0.448,6.563-0.873,6.463c-0.554-0.13-2.795-0.262-2.795-0.262
						s-0.437,10.219-0.524,12.751c-0.087,2.533-0.087,2.533-0.087,2.533l15.953-12.068l-3.114-1.295c0,0,0.087-3.232,0.961-5.939
						c0.873-2.707,1.834-4.454,1.834-4.454s4.978-1.659,7.686-5.415c2.173-3.014,2.105-7.325,0.924-10.704
						c-1.417-4.052-4.805-6.917-9.061-7.632C297.841,227.474,297.048,227.412,296.247,227.427z"/>
					<path id="XMLID_6_" style="fill:none;stroke:#263238;stroke-linecap:round;stroke-linejoin:round;stroke-miterlimit:10;" d="
						M287.512,237.376c0,0-1.485,1.659-2.882,2.533s-0.349,2.533,1.397,3.144c1.747,0.611,2.271-0.175,2.271-0.175"/>
					
						<path id="XMLID_4_" style="fill:none;stroke:#263238;stroke-width:0.75;stroke-linecap:round;stroke-linejoin:round;stroke-miterlimit:10;" d="
						M288.561,245.936c0,0-3.581-0.524-5.24-2.096c0,0,0.349,1.659,1.922,2.096C286.814,246.372,288.561,245.936,288.561,245.936z"
						/>
					<path id="XMLID_8_" style="fill:none;stroke:#263238;stroke-linecap:round;stroke-linejoin:round;stroke-miterlimit:10;" d="
						M293.626,235.106c0,0,2.009,0.524,2.271,2.795"/>
					<path id="XMLID_10_" style="fill:none;stroke:#263238;stroke-linecap:round;stroke-linejoin:round;stroke-miterlimit:10;" d="
						M290.657,233.708c0,0-1.485-1.31-3.144-0.175"/>
					<path id="XMLID_7_" style="fill:#263238;" d="M292.054,238.509c-0.373,0.592-0.891,0.936-1.156,0.768
						c-0.265-0.167-0.178-0.783,0.195-1.374c0.373-0.592,0.891-0.936,1.156-0.768C292.514,237.302,292.427,237.917,292.054,238.509z
						"/>
					<path id="XMLID_12_" style="fill:#263238;" d="M287.076,236.066c-0.373,0.592-0.891,0.936-1.156,0.768
						c-0.265-0.167-0.178-0.782,0.195-1.374c0.373-0.592,0.891-0.936,1.156-0.768C287.536,234.86,287.449,235.475,287.076,236.066z"
						/>
					
						<path id="XMLID_13_" style="fill:none;stroke:#263238;stroke-width:0.75;stroke-linecap:round;stroke-linejoin:round;stroke-miterlimit:10;" d="
						M290.133,240.084c0,0,2.707,0.087,3.581,1.135"/>
					
						<path id="XMLID_52_" style="fill:#263238;stroke:#263238;stroke-linecap:round;stroke-linejoin:round;stroke-miterlimit:10;" d="
						M307.651,235.232c-1.417-4.052-4.805-6.917-9.061-7.632c-0.749-0.126-1.542-0.187-2.344-0.173
						c-0.887,0.016-1.786,0.126-2.647,0.344c0.248,0.258,0.365,0.655,1.25,1.309c0.801,0.592,3.057,0.349,5.502,1.397
						c2.445,1.048,3.93,4.542,2.358,6.638c-1.572,2.096-3.194-0.499-3.98,1.422c-0.26,0.635-0.6,1.727-0.921,2.916
						c-0.018,0.343-0.003,0.677,0.072,0.952c0.283,1.038,0.943,1.509,0.566,1.981c-0.377,0.472-0.943,1.038-0.943,1.698
						c0,0.19,0.087,0.348,0.21,0.478c1.475-0.595,4.598-1.613,4.996,0.246c0.524,2.445-1.572,3.668-3.232,3.93
						c-1.659,0.262-3.843-0.524-3.843-0.524s0.603,1.421,3.119,1.701c0.177-0.364,0.287-0.565,0.287-0.565s4.978-1.659,7.686-5.415
						C308.9,242.922,308.832,238.611,307.651,235.232z"/>
				</g>
			</g>
		</g>
	</g>
</g>
<g id="Clouds">
	<g>
		<path id="XMLID_41_" style="fill:#FFFFFF;stroke:#263238;stroke-linecap:round;stroke-linejoin:round;stroke-miterlimit:10;" d="
			M297.524,149.056c0-14.748-11.955-26.703-26.703-26.703c-1.556,0-3.079,0.141-4.562,0.396
			c-0.138-20.865-17.092-37.737-37.989-37.737c-20.852,0-37.777,16.799-37.987,37.601c-1.209-0.167-2.441-0.261-3.695-0.261
			c-14.748,0-26.703,11.955-26.703,26.703c0,14.205,11.094,25.815,25.089,26.65v0.058h87.452v-0.057
			C286.426,174.876,297.524,163.264,297.524,149.056z"/>
		<polygon id="XMLID_43_" style="fill:#263238;" points="242.452,148.059 225.482,133.963 208.513,148.059 212.236,148.059 
			212.236,193.403 238.729,193.403 238.729,148.059 		"/>
		<g id="XMLID_34_">
			<path id="XMLID_36_" style="fill:#C6FF00;stroke:#263238;stroke-linecap:round;stroke-linejoin:round;stroke-miterlimit:10;" d="
				M228.445,184.658c-0.651,0-1.202,0.528-1.23,1.179l-0.07,1.605h-19.864l-1.173,27.846h38.146l0.881-21.109l0.292-6.737
				l0.121-2.784H228.445z"/>
			
				<polygon id="XMLID_3_" style="fill:#FFFFFF;stroke:#263238;stroke-linecap:round;stroke-linejoin:round;stroke-miterlimit:10;" points="
				244.253,215.288 244.085,189.383 207.427,189.383 207.721,214.975 			"/>
			
				<polygon id="XMLID_38_" style="fill:#FFFFFF;stroke:#263238;stroke-linecap:round;stroke-linejoin:round;stroke-miterlimit:10;" points="
				244.253,215.288 242.587,189.383 205.928,189.383 206.222,214.975 			"/>
			
				<polygon id="XMLID_9_" style="fill:#C6FF00;stroke:#263238;stroke-linecap:round;stroke-linejoin:round;stroke-miterlimit:10;" points="
				206.107,215.288 201.006,188.576 239.394,188.576 244.253,215.288 			"/>
		</g>
		<g id="XMLID_39_">
			
				<line id="XMLID_48_" style="fill:none;stroke:#263238;stroke-linecap:round;stroke-linejoin:round;stroke-miterlimit:10;" x1="209.84" y1="179.947" x2="209.84" y2="181.732"/>
			
				<line id="XMLID_40_" style="fill:none;stroke:#263238;stroke-linecap:round;stroke-linejoin:round;stroke-miterlimit:10;" x1="209.84" y1="170.048" x2="209.84" y2="178.162"/>
			
				<line id="XMLID_42_" style="fill:none;stroke:#263238;stroke-linecap:round;stroke-linejoin:round;stroke-miterlimit:10;" x1="241.022" y1="161.449" x2="241.022" y2="168.264"/>
			
				<line id="XMLID_49_" style="fill:none;stroke:#263238;stroke-linecap:round;stroke-linejoin:round;stroke-miterlimit:10;" x1="229.168" y1="216.466" x2="229.168" y2="223.281"/>
			
				<line id="XMLID_50_" style="fill:none;stroke:#263238;stroke-linecap:round;stroke-linejoin:round;stroke-miterlimit:10;" x1="243.946" y1="226.841" x2="243.946" y2="242.256"/>
			
				<line id="XMLID_44_" style="fill:none;stroke:#263238;stroke-linecap:round;stroke-linejoin:round;stroke-miterlimit:10;" x1="243.946" y1="221.486" x2="243.946" y2="224.407"/>
			
				<line id="XMLID_45_" style="fill:none;stroke:#263238;stroke-linecap:round;stroke-linejoin:round;stroke-miterlimit:10;" x1="209.059" y1="220.837" x2="209.059" y2="226.354"/>
			
				<line id="XMLID_47_" style="fill:none;stroke:#263238;stroke-linecap:round;stroke-linejoin:round;stroke-miterlimit:10;" x1="212.629" y1="246.312" x2="212.629" y2="247.611"/>
			
				<line id="XMLID_46_" style="fill:none;stroke:#263238;stroke-linecap:round;stroke-linejoin:round;stroke-miterlimit:10;" x1="212.629" y1="224.245" x2="212.629" y2="244.527"/>
		</g>
	</g>
	<path id="XMLID_53_" style="fill:#FFFFFF;stroke:#263238;stroke-linecap:round;stroke-linejoin:round;stroke-miterlimit:10;" d="
		M398.346,181.231c0-8.67-7.028-15.698-15.698-15.698c-0.915,0-1.81,0.083-2.682,0.233c-0.081-12.266-10.048-22.185-22.333-22.185
		c-12.259,0-22.209,9.876-22.332,22.105c-0.71-0.098-1.435-0.153-2.172-0.153c-8.67,0-15.698,7.028-15.698,15.698
		c0,8.351,6.522,15.176,14.75,15.667v0.034h51.412v-0.034C391.822,196.41,398.346,189.584,398.346,181.231z"/>
	<path id="XMLID_54_" style="fill:#FFFFFF;stroke:#263238;stroke-linecap:round;stroke-linejoin:round;stroke-miterlimit:10;" d="
		M341.047,97.327c0-4.888-3.962-8.85-8.85-8.85c-0.516,0-1.02,0.047-1.512,0.131c-0.046-6.915-5.664-12.506-12.59-12.506
		c-6.911,0-12.52,5.567-12.589,12.461c-0.4-0.055-0.809-0.086-1.225-0.086c-4.888,0-8.85,3.962-8.85,8.85
		c0,4.708,3.676,8.555,8.315,8.832v0.019h28.983v-0.019C337.369,105.884,341.047,102.036,341.047,97.327z"/>
</g>
</svg>
